<?xml version="1.0" encoding="utf-8"?>
<!-- Generator: Adobe Illustrator 28.3.0, SVG Export Plug-In . SVG Version: 6.00 Build 0)  -->
<svg version="1.1" id="Layer_1" xmlns="http://www.w3.org/2000/svg" xmlns:xlink="http://www.w3.org/1999/xlink" x="0px" y="0px"
	 viewBox="0 0 1080 1080" enable-background="new 0 0 1080 1080" xml:space="preserve">
<g display="none">
	<path display="inline" fill="#8C0E16" d="M457.5,532.8v-63.5c0-2.1,0.7-3.8,2.2-5.3c1.4-1.4,3.2-2.2,5.3-2.2h26
		c7.3,0,12.9,1.5,16.7,4.5c3.8,3.3,5.8,7.8,5.8,13.4c0,3.6-0.8,6.6-2.3,9.1c-1.5,2.3-3.6,4.2-6.4,5.6c3.6,1.5,6.3,3.6,8.3,6.4
		c1.8,2.6,2.7,6.1,2.7,10.3c0,6.9-2.2,12.2-6.6,16.1c-4.5,3.7-10.9,5.6-19.2,5.6H457.5z M471.6,489.3h16.7c3.6,0,6.2-0.6,7.8-1.9
		c1.7-1.2,2.5-3.2,2.5-5.8c0-2.6-0.8-4.5-2.5-5.8c-1.4-1.1-4.1-1.7-8-1.7h-16.5V489.3z M471.6,520h17.3c3.8,0,6.8-0.8,8.9-2.3
		c1.9-1.4,2.9-3.7,2.9-7s-1-5.7-2.9-7.2c-1.8-1.4-4.8-2.1-9.1-2.1h-17.1V520z"/>
	<path display="inline" fill="#8C0E16" d="M523.2,461.8h7.4c1.9,0,3.6,0.7,5,2c1.4,1.3,2.1,2.9,2.1,4.8v64.1h-14.4V461.8z"/>
	<path display="inline" fill="#8C0E16" d="M550.9,527.8c-2.9-2.5-5-5.8-6.2-10c-1.2-4.2-1.9-8.6-1.9-13.1c0-3.7,0.5-7.4,1.5-11.1
		s2.6-6.8,4.8-9.3c3.6-4.1,8.2-6.6,13.8-7.3c5.6-0.8,10.7-0.3,15.3,1.3c5.2,2.1,9.1,5.6,11.6,10.7c2.3,4.5,3.5,9.8,3.5,15.9
		c0,4.4-0.5,8.2-1.4,11.3c-1,3.2-2.2,5.8-3.7,8c-3.3,4.5-7.5,7.4-12.6,8.5c-4.5,1.2-9.1,1.3-13.7,0.3
		C557.4,532.1,553.7,530.3,550.9,527.8z M560.8,491.5c-2.9,3.2-4.2,7.9-3.9,14.1c0.3,6.3,1.4,10.6,3.5,13.1c0.8,1.1,2.3,2,4.3,2.8
		c2.1,0.8,4.2,0.8,6.3,0.2c2.1-0.6,4-2.2,5.7-4.6c1.6-2.5,2.5-6.5,2.7-12c0-5-0.8-8.7-2.4-11.1c-1.6-2.5-3.4-4.1-5.5-4.7
		c-2.1-0.7-4.1-0.7-6.2-0.1C563.3,489.8,561.8,490.6,560.8,491.5z"/>
	<path display="inline" fill="#8C0E16" d="M606.5,527.8c-2.9-2.5-5-5.8-6.2-10c-1.2-4.2-1.9-8.6-1.9-13.1c0-3.7,0.5-7.4,1.5-11.1
		s2.6-6.8,4.8-9.3c3.6-4.1,8.2-6.6,13.8-7.3c5.6-0.8,10.7-0.3,15.3,1.3c5.2,2.1,9.1,5.6,11.6,10.7c2.3,4.5,3.5,9.8,3.5,15.9
		c0,4.4-0.5,8.2-1.4,11.3c-1,3.2-2.2,5.8-3.7,8c-3.3,4.5-7.5,7.4-12.6,8.5c-4.5,1.2-9.1,1.3-13.7,0.3
		C613,532.1,609.3,530.3,606.5,527.8z M616.4,491.5c-2.9,3.2-4.2,7.9-3.9,14.1c0.3,6.3,1.4,10.6,3.5,13.1c0.8,1.1,2.3,2,4.3,2.8
		c2.1,0.8,4.2,0.8,6.3,0.2c2.1-0.6,4-2.2,5.7-4.6c1.6-2.5,2.5-6.5,2.7-12c0-5-0.8-8.7-2.4-11.1c-1.6-2.5-3.4-4.1-5.5-4.7
		c-2.1-0.7-4.1-0.7-6.2-0.1C618.9,489.8,617.4,490.6,616.4,491.5z"/>
	<path display="inline" fill="#8C0E16" d="M691.6,461.6h7c1.9,0,3.6,0.7,5,2.2c1.4,1.4,2.1,3.1,2.1,4.8v40.2
		c0,9.8-2.8,16.4-8.5,19.8c-5.6,3.4-11.8,5.2-18.4,5.2c-3.6,0-7.1-0.6-10.5-1.8c-3.4-1.2-6.2-3.1-8.3-5.7c-4-5.1-6-12-6-20.8
		c0-8.7,2-15.6,6-20.8c4.1-5.4,9.4-8,15.9-8c3.4,0,6.5,0.7,9.1,2.1c2.7,1.7,5,3.8,6.6,6.4V461.6z M668.1,504.9c0,5.5,1,9.7,3.1,12.6
		c2.1,2.9,5,4.3,8.9,4.3c3.7,0,6.6-1.4,8.7-4.3c1.9-2.9,2.9-7.1,2.9-12.6c0-5-1-8.9-3.1-11.8c-2.2-2.7-5.2-4.1-8.9-4.1
		c-3.6,0-6.4,1.4-8.5,4.3C669.1,496.1,668.1,500,668.1,504.9z"/>
	<path display="inline" fill="#8C0E16" d="M520.9,599.8c-0.7,8.3-3.8,14.7-9.3,19.4c-5.6,4.5-13.1,6.8-22.3,6.8
		c-10.7,0-18.9-3.2-24.5-9.7c-5.6-6.2-8.5-15.3-8.5-27.4c0-12.4,2.9-21.7,8.7-27.8c5.9-6.5,14.4-9.7,25.6-9.7
		c9.1,0,16.3,2.3,21.7,6.8c5.1,4.4,8,10.6,8.7,18.6H512c-3.3,0-5.6-1.4-7-4.3c-1-1.8-2.1-3.4-3.5-4.7c-2.8-2.1-6.4-3.1-10.9-3.1
		c-6.3,0-11.2,2.1-14.6,6.2c-3.3,4.1-5,10.2-5,18.2c0,7.7,1.7,13.6,5,17.7c3.2,4.3,7.9,6.4,14.2,6.4c4.4,0,8-1.1,10.9-3.3
		c2.6-2.1,4.5-5.4,5.6-9.9H520.9z"/>
	<path display="inline" fill="#8C0E16" d="M534.8,619.4c-2.9-2.5-5-5.8-6.2-10c-1.2-4.2-1.9-8.6-1.9-13.1c0-3.7,0.5-7.4,1.5-11.1
		s2.6-6.8,4.8-9.3c3.6-4.1,8.2-6.6,13.8-7.3c5.6-0.8,10.7-0.3,15.3,1.3c5.2,2.1,9.1,5.6,11.6,10.7c2.3,4.5,3.5,9.8,3.5,15.9
		c0,4.4-0.5,8.2-1.4,11.3c-1,3.2-2.2,5.8-3.7,8c-3.3,4.5-7.5,7.4-12.6,8.5c-4.5,1.2-9.1,1.3-13.7,0.3
		C541.2,623.6,537.5,621.9,534.8,619.4z M544.7,583.1c-2.9,3.2-4.2,7.9-3.9,14.1c0.3,6.3,1.4,10.6,3.5,13.1c0.8,1.1,2.3,2,4.3,2.8
		c2.1,0.8,4.2,0.8,6.3,0.2c2.1-0.6,4-2.2,5.7-4.6c1.6-2.5,2.5-6.5,2.7-12c0-5-0.8-8.7-2.4-11.1c-1.6-2.5-3.4-4.1-5.5-4.7
		c-2.1-0.7-4.1-0.7-6.2-0.1C547.1,581.4,545.6,582.2,544.7,583.1z"/>
	<path display="inline" fill="#8C0E16" d="M631.4,624.4h-7.2c-2.1,0-3.7-0.7-5.1-2c-1.3-1.3-2-3-2-5.1v-28.1c0-3.3-1-5.7-3-7.2
		c-2-1.5-4.2-2.3-6.7-2.3c-2.5,0-4.7,0.8-6.6,2.3c-1.9,1.5-2.9,3.9-2.9,7.2v35.1h-14.4v-32.2c0-9.3,2.4-15.6,7.3-18.8
		c4.9-3.2,10.3-4.9,16.2-5.2c6,0,11.6,1.6,16.7,4.7c5.1,3.2,7.6,9.6,7.6,19.2V624.4z"/>
	<path display="inline" fill="#8C0E16" d="M685.5,624.4h-7.2c-2.1,0-3.7-0.7-5.1-2c-1.3-1.3-2-3-2-5.1v-28.1c0-3.3-1-5.7-3-7.2
		c-2-1.5-4.2-2.3-6.7-2.3c-2.5,0-4.7,0.8-6.6,2.3c-1.9,1.5-2.9,3.9-2.9,7.2v35.1h-14.4v-32.2c0-9.3,2.4-15.6,7.3-18.8
		c4.9-3.2,10.3-4.9,16.2-5.2c6,0,11.6,1.6,16.7,4.7c5.1,3.2,7.6,9.6,7.6,19.2V624.4z"/>
	<path display="inline" fill="#8C0E16" d="M730,607.5h10.3c-1.5,5.8-4.4,10.2-8.7,13.2c-4.3,3.2-9.6,4.7-16.1,4.7
		c-7.8,0-14-2.5-18.4-7.6c-4.4-5-6.6-12-6.6-21.2c0-8.8,2.1-15.7,6.4-20.6c4.4-5.1,10.5-7.6,18.4-7.6c8.3,0,14.6,2.5,19.2,7.4
		c4.4,5.1,6.6,12.2,6.6,21.2c0,0.6,0,1,0,1.4c0,0.4,0,0.7,0,0.8c0,0.7-0.1,1.2-0.2,1.4h-35.7c0.1,4.3,1.2,7.4,3.1,9.5
		c1.8,2.2,4.5,3.3,8,3.3c2.3,0,4.3-0.5,6-1.4c0.4-0.1,0.8-0.4,1.1-0.7c0.3-0.3,0.7-0.7,1.1-1.1c0.1-0.4,0.7-1,1.5-1.7
		C727,607.8,728.3,607.5,730,607.5z M705.2,591.4h21c-0.3-3.7-1.2-6.5-2.9-8.3c-1.8-1.9-4.3-2.9-7.6-2.9c-3,0-5.5,1-7.4,2.9
		C706.4,585,705.4,587.8,705.2,591.4z"/>
	<path display="inline" fill="#8C0E16" d="M785.6,607.5h10.3c-1.5,5.8-4.4,10.2-8.7,13.2c-4.3,3.2-9.6,4.7-16.1,4.7
		c-7.8,0-14-2.5-18.4-7.6c-4.4-5-6.6-12-6.6-21.2c0-8.8,2.1-15.7,6.4-20.6c4.4-5.1,10.5-7.6,18.4-7.6c8.3,0,14.6,2.5,19.2,7.4
		c2.5,3,4.3,6.5,5.4,10.5H781c-0.7-1.4-1.4-2.4-2.1-3.1c-1.8-1.9-4.3-2.9-7.6-2.9c-3,0-5.5,1-7.4,2.9c-2.5,2.8-3.7,7.3-3.7,13.6
		c0,6.3,1.2,10.8,3.7,13.4c1.8,2.2,4.5,3.3,8,3.3c2.3,0,4.3-0.5,6-1.4c0.4-0.1,0.8-0.4,1.1-0.7c0.3-0.3,0.7-0.7,1.1-1.1
		c0.3-0.4,0.8-1,1.7-1.7C782.7,607.8,783.9,607.5,785.6,607.5z"/>
	<path display="inline" fill="#8C0E16" d="M826.5,624.4c-4.5,0.3-9.5,0.2-14.7-0.2c-5.3-0.4-7.9-3.8-7.9-10.1v-60.6h7.4
		c1.8,0,3.4,0.7,4.7,2.1c1.4,1.4,2.1,3,2.1,5v9.3h8.5v2.9c0,2.1-0.7,3.7-2.1,5.1c-1.4,1.3-3,2-5,2H818v30.5c0,2.3,1.4,3.5,4.1,3.5
		h4.3V624.4z"/>
</g>
<g>
	<path fill-rule="evenodd" clip-rule="evenodd" fill="#9E000F" d="M878.2,945.2H207c-37.3,0-67.5-30.2-67.5-67.5V206.5
		c0-37.3,30.2-67.5,67.5-67.5h671.2c37.3,0,67.5,30.2,67.5,67.5v671.2C945.8,915,915.5,945.2,878.2,945.2z"/>
	<g>
		<path fill-rule="evenodd" clip-rule="evenodd" fill="#FFFFFF" d="M700.1,282.5c13.1,22.8,5.3,51.9-17.4,65.1
			c-22.8,13.1-51.9,5.3-65-17.4c-13.1-22.8-5.3-51.9,17.4-65C657.8,251.9,686.9,259.7,700.1,282.5"/>
		<path fill-rule="evenodd" clip-rule="evenodd" fill="#FFFFFF" d="M348.2,703c37.7,78.5,118.4,127.5,207,122.2
			c88.7-5.3,162.9-63.7,190.9-146.2c20.7-61,13.5-113.4-9.4-160c-39.4-80.2-125.3-143-194.4-203L509,354.2
			c58.7,50.9,147.5,114.1,182.8,188.2c18.4,38.6,20.1,79.6,6.3,120.2c-21.4,63.1-77.9,107.9-146,112
			c-68.1,4.1-129.5-33.4-158.5-93.6c-9.3-19.3-15-40.7-16.4-63.5l-50.5,3.1C328.7,650.1,336.1,678,348.2,703"/>
		<linearGradient id="SVGID_1_" gradientUnits="userSpaceOnUse" x1="471.1496" y1="741.6788" x2="619.8996" y2="470.4288">
			<stop  offset="0.3447" style="stop-color:#FFFFFF"/>
			<stop  offset="0.3671" style="stop-color:#FEF2F3"/>
			<stop  offset="0.4748" style="stop-color:#F7B7BC"/>
			<stop  offset="0.5263" style="stop-color:#F5A0A6"/>
			<stop  offset="0.6392" style="stop-color:#EF6C76"/>
			<stop  offset="0.7549" style="stop-color:#EB3E4C"/>
			<stop  offset="0.8578" style="stop-color:#E71D2D"/>
			<stop  offset="0.943" style="stop-color:#E5081A"/>
			<stop  offset="1" style="stop-color:#E40113"/>
		</linearGradient>
		<path fill-rule="evenodd" clip-rule="evenodd" fill="url(#SVGID_1_)" d="M426.7,666.8c22.5,46.7,70.5,75.9,123.3,72.8
			c52.2-3.1,96.9-37.6,113.8-87.1c22.7-66.9-12-117.7-57.4-160.9c-9.4,11-20.7,24.4-32.7,38.5c30.7,28.5,56.7,63.3,42.2,106.1
			c-10.2,30-37.1,50.9-68.8,52.9c-32.2,1.9-61.1-15.8-74.7-44.2c-31.7-65.8,54.4-137.8,96-186.6c-12.8-10.7-25.5-21-37.1-31.1
			C472,492.5,379.6,568.7,426.7,666.8L426.7,666.8z"/>
		
			<linearGradient id="SVGID_00000047019474756399117490000008334325685668972712_" gradientUnits="userSpaceOnUse" x1="344.8034" y1="581.3035" x2="493.5534" y2="310.0535">
			<stop  offset="0.4146" style="stop-color:#FFFFFF"/>
			<stop  offset="0.4387" style="stop-color:#FDF0F1"/>
			<stop  offset="0.5608" style="stop-color:#F6A8AF"/>
			<stop  offset="0.6758" style="stop-color:#EF6D77"/>
			<stop  offset="0.7804" style="stop-color:#EB3E4C"/>
			<stop  offset="0.8727" style="stop-color:#E71D2D"/>
			<stop  offset="0.949" style="stop-color:#E5081A"/>
			<stop  offset="1" style="stop-color:#E40113"/>
		</linearGradient>
		<path fill-rule="evenodd" clip-rule="evenodd" fill="url(#SVGID_00000047019474756399117490000008334325685668972712_)" d="
			M398.8,432c-13-22.5-5.3-51.4,17.3-64.4c22.5-13,51.4-5.3,64.4,17.2c13,22.6,5.3,51.4-17.3,64.4
			C440.6,462.2,411.8,454.5,398.8,432"/>
	</g>
</g>
</svg>
