<?xml version="1.0" encoding="utf-8"?>
<!-- Generator: Adobe Illustrator 28.3.0, SVG Export Plug-In . SVG Version: 6.00 Build 0)  -->
<svg version="1.1" id="Layer_1" xmlns="http://www.w3.org/2000/svg" xmlns:xlink="http://www.w3.org/1999/xlink" x="0px" y="0px"
	 viewBox="0 0 1080 1080" enable-background="new 0 0 1080 1080" xml:space="preserve">
<g>
	<path fill="#8C0E16" d="M457.5,532.8v-63.5c0-2.1,0.7-3.8,2.2-5.3c1.4-1.4,3.2-2.2,5.3-2.2h26c7.3,0,12.9,1.5,16.7,4.5
		c3.8,3.3,5.8,7.8,5.8,13.4c0,3.6-0.8,6.6-2.3,9.1c-1.5,2.3-3.6,4.2-6.4,5.6c3.6,1.5,6.3,3.6,8.3,6.4c1.8,2.6,2.7,6.1,2.7,10.3
		c0,6.9-2.2,12.2-6.6,16.1c-4.5,3.7-10.9,5.6-19.2,5.6H457.5z M471.6,489.3h16.7c3.6,0,6.2-0.6,7.8-1.9c1.7-1.2,2.5-3.2,2.5-5.8
		c0-2.6-0.8-4.5-2.5-5.8c-1.4-1.1-4.1-1.7-8-1.7h-16.5V489.3z M471.6,520h17.3c3.8,0,6.8-0.8,8.9-2.3c1.9-1.4,2.9-3.7,2.9-7
		s-1-5.7-2.9-7.2c-1.8-1.4-4.8-2.1-9.1-2.1h-17.1V520z"/>
	<path fill="#8C0E16" d="M523.2,461.8h7.4c1.9,0,3.6,0.7,5,2c1.4,1.3,2.1,2.9,2.1,4.8v64.1h-14.4V461.8z"/>
	<path fill="#8C0E16" d="M550.9,527.8c-2.9-2.5-5-5.8-6.2-10c-1.2-4.2-1.9-8.6-1.9-13.1c0-3.7,0.5-7.4,1.5-11.1s2.6-6.8,4.8-9.3
		c3.6-4.1,8.2-6.6,13.8-7.3c5.6-0.8,10.7-0.3,15.3,1.3c5.2,2.1,9.1,5.6,11.6,10.7c2.3,4.5,3.5,9.8,3.5,15.9c0,4.4-0.5,8.2-1.4,11.3
		c-1,3.2-2.2,5.8-3.7,8c-3.3,4.5-7.5,7.4-12.6,8.5c-4.5,1.2-9.1,1.3-13.7,0.3C557.4,532.1,553.7,530.3,550.9,527.8z M560.8,491.5
		c-2.9,3.2-4.2,7.9-3.9,14.1c0.3,6.3,1.4,10.6,3.5,13.1c0.8,1.1,2.3,2,4.3,2.8c2.1,0.8,4.2,0.8,6.3,0.2c2.1-0.6,4-2.2,5.7-4.6
		c1.6-2.5,2.5-6.5,2.7-12c0-5-0.8-8.7-2.4-11.1c-1.6-2.5-3.4-4.1-5.5-4.7c-2.1-0.7-4.1-0.7-6.2-0.1
		C563.3,489.8,561.8,490.6,560.8,491.5z"/>
	<path fill="#8C0E16" d="M606.5,527.8c-2.9-2.5-5-5.8-6.2-10c-1.2-4.2-1.9-8.6-1.9-13.1c0-3.7,0.5-7.4,1.5-11.1s2.6-6.8,4.8-9.3
		c3.6-4.1,8.2-6.6,13.8-7.3c5.6-0.8,10.7-0.3,15.3,1.3c5.2,2.1,9.1,5.6,11.6,10.7c2.3,4.5,3.5,9.8,3.5,15.9c0,4.4-0.5,8.2-1.4,11.3
		c-1,3.2-2.2,5.8-3.7,8c-3.3,4.5-7.5,7.4-12.6,8.5c-4.5,1.2-9.1,1.3-13.7,0.3C613,532.1,609.3,530.3,606.5,527.8z M616.4,491.5
		c-2.9,3.2-4.2,7.9-3.9,14.1c0.3,6.3,1.4,10.6,3.5,13.1c0.8,1.1,2.3,2,4.3,2.8c2.1,0.8,4.2,0.8,6.3,0.2c2.1-0.6,4-2.2,5.7-4.6
		c1.6-2.5,2.5-6.5,2.7-12c0-5-0.8-8.7-2.4-11.1c-1.6-2.5-3.4-4.1-5.5-4.7c-2.1-0.7-4.1-0.7-6.2-0.1
		C618.9,489.8,617.4,490.6,616.4,491.5z"/>
	<path fill="#8C0E16" d="M691.6,461.6h7c1.9,0,3.6,0.7,5,2.2c1.4,1.4,2.1,3.1,2.1,4.8v40.2c0,9.8-2.8,16.4-8.5,19.8
		c-5.6,3.4-11.8,5.2-18.4,5.2c-3.6,0-7.1-0.6-10.5-1.8c-3.4-1.2-6.2-3.1-8.3-5.7c-4-5.1-6-12-6-20.8c0-8.7,2-15.6,6-20.8
		c4.1-5.4,9.4-8,15.9-8c3.4,0,6.5,0.7,9.1,2.1c2.7,1.7,5,3.8,6.6,6.4V461.6z M668.1,504.9c0,5.5,1,9.7,3.1,12.6
		c2.1,2.9,5,4.3,8.9,4.3c3.7,0,6.6-1.4,8.7-4.3c1.9-2.9,2.9-7.1,2.9-12.6c0-5-1-8.9-3.1-11.8c-2.2-2.7-5.2-4.1-8.9-4.1
		c-3.6,0-6.4,1.4-8.5,4.3C669.1,496.1,668.1,500,668.1,504.9z"/>
	<path fill="#8C0E16" d="M520.9,599.8c-0.7,8.3-3.8,14.7-9.3,19.4c-5.6,4.5-13.1,6.8-22.3,6.8c-10.7,0-18.9-3.2-24.5-9.7
		c-5.6-6.2-8.5-15.3-8.5-27.4c0-12.4,2.9-21.7,8.7-27.8c5.9-6.5,14.4-9.7,25.6-9.7c9.1,0,16.3,2.3,21.7,6.8c5.1,4.4,8,10.6,8.7,18.6
		H512c-3.3,0-5.6-1.4-7-4.3c-1-1.8-2.1-3.4-3.5-4.7c-2.8-2.1-6.4-3.1-10.9-3.1c-6.3,0-11.2,2.1-14.6,6.2c-3.3,4.1-5,10.2-5,18.2
		c0,7.7,1.7,13.6,5,17.7c3.2,4.3,7.9,6.4,14.2,6.4c4.4,0,8-1.1,10.9-3.3c2.6-2.1,4.5-5.4,5.6-9.9H520.9z"/>
	<path fill="#8C0E16" d="M534.8,619.4c-2.9-2.5-5-5.8-6.2-10c-1.2-4.2-1.9-8.6-1.9-13.1c0-3.7,0.5-7.4,1.5-11.1s2.6-6.8,4.8-9.3
		c3.6-4.1,8.2-6.6,13.8-7.3c5.6-0.8,10.7-0.3,15.3,1.3c5.2,2.1,9.1,5.6,11.6,10.7c2.3,4.5,3.5,9.8,3.5,15.9c0,4.4-0.5,8.2-1.4,11.3
		c-1,3.2-2.2,5.8-3.7,8c-3.3,4.5-7.5,7.4-12.6,8.5c-4.5,1.2-9.1,1.3-13.7,0.3C541.2,623.6,537.5,621.9,534.8,619.4z M544.7,583.1
		c-2.9,3.2-4.2,7.9-3.9,14.1c0.3,6.3,1.4,10.6,3.5,13.1c0.8,1.1,2.3,2,4.3,2.8c2.1,0.8,4.2,0.8,6.3,0.2c2.1-0.6,4-2.2,5.7-4.6
		c1.6-2.5,2.5-6.5,2.7-12c0-5-0.8-8.7-2.4-11.1c-1.6-2.5-3.4-4.1-5.5-4.7c-2.1-0.7-4.1-0.7-6.2-0.1
		C547.1,581.4,545.6,582.2,544.7,583.1z"/>
	<path fill="#8C0E16" d="M631.4,624.4h-7.2c-2.1,0-3.7-0.7-5.1-2c-1.3-1.3-2-3-2-5.1v-28.1c0-3.3-1-5.7-3-7.2
		c-2-1.5-4.2-2.3-6.7-2.3c-2.5,0-4.7,0.8-6.6,2.3c-1.9,1.5-2.9,3.9-2.9,7.2v35.1h-14.4v-32.2c0-9.3,2.4-15.6,7.3-18.8
		c4.9-3.2,10.3-4.9,16.2-5.2c6,0,11.6,1.6,16.7,4.7c5.1,3.2,7.6,9.6,7.6,19.2V624.4z"/>
	<path fill="#8C0E16" d="M685.5,624.4h-7.2c-2.1,0-3.7-0.7-5.1-2c-1.3-1.3-2-3-2-5.1v-28.1c0-3.3-1-5.7-3-7.2
		c-2-1.5-4.2-2.3-6.7-2.3c-2.5,0-4.7,0.8-6.6,2.3c-1.9,1.5-2.9,3.9-2.9,7.2v35.1h-14.4v-32.2c0-9.3,2.4-15.6,7.3-18.8
		c4.9-3.2,10.3-4.9,16.2-5.2c6,0,11.6,1.6,16.7,4.7c5.1,3.2,7.6,9.6,7.6,19.2V624.4z"/>
	<path fill="#8C0E16" d="M730,607.5h10.3c-1.5,5.8-4.4,10.2-8.7,13.2c-4.3,3.2-9.6,4.7-16.1,4.7c-7.8,0-14-2.5-18.4-7.6
		c-4.4-5-6.6-12-6.6-21.2c0-8.8,2.1-15.7,6.4-20.6c4.4-5.1,10.5-7.6,18.4-7.6c8.3,0,14.6,2.5,19.2,7.4c4.4,5.1,6.6,12.2,6.6,21.2
		c0,0.6,0,1,0,1.4c0,0.4,0,0.7,0,0.8c0,0.7-0.1,1.2-0.2,1.4h-35.7c0.1,4.3,1.2,7.4,3.1,9.5c1.8,2.2,4.5,3.3,8,3.3
		c2.3,0,4.3-0.5,6-1.4c0.4-0.1,0.8-0.4,1.1-0.7c0.3-0.3,0.7-0.7,1.1-1.1c0.1-0.4,0.7-1,1.5-1.7C727,607.8,728.3,607.5,730,607.5z
		 M705.2,591.4h21c-0.3-3.7-1.2-6.5-2.9-8.3c-1.8-1.9-4.3-2.9-7.6-2.9c-3,0-5.5,1-7.4,2.9C706.4,585,705.4,587.8,705.2,591.4z"/>
	<path fill="#8C0E16" d="M785.6,607.5h10.3c-1.5,5.8-4.4,10.2-8.7,13.2c-4.3,3.2-9.6,4.7-16.1,4.7c-7.8,0-14-2.5-18.4-7.6
		c-4.4-5-6.6-12-6.6-21.2c0-8.8,2.1-15.7,6.4-20.6c4.4-5.1,10.5-7.6,18.4-7.6c8.3,0,14.6,2.5,19.2,7.4c2.5,3,4.3,6.5,5.4,10.5H781
		c-0.7-1.4-1.4-2.4-2.1-3.1c-1.8-1.9-4.3-2.9-7.6-2.9c-3,0-5.5,1-7.4,2.9c-2.5,2.8-3.7,7.3-3.7,13.6c0,6.3,1.2,10.8,3.7,13.4
		c1.8,2.2,4.5,3.3,8,3.3c2.3,0,4.3-0.5,6-1.4c0.4-0.1,0.8-0.4,1.1-0.7c0.3-0.3,0.7-0.7,1.1-1.1c0.3-0.4,0.8-1,1.7-1.7
		C782.7,607.8,783.9,607.5,785.6,607.5z"/>
	<path fill="#8C0E16" d="M826.5,624.4c-4.5,0.3-9.5,0.2-14.7-0.2c-5.3-0.4-7.9-3.8-7.9-10.1v-60.6h7.4c1.8,0,3.4,0.7,4.7,2.1
		c1.4,1.4,2.1,3,2.1,5v9.3h8.5v2.9c0,2.1-0.7,3.7-2.1,5.1c-1.4,1.3-3,2-5,2H818v30.5c0,2.3,1.4,3.5,4.1,3.5h4.3V624.4z"/>
</g>
<g>
	<path fill-rule="evenodd" clip-rule="evenodd" fill="#9E000F" d="M385.6,409.2c6.6,11.5,2.7,26.2-8.8,32.8
		c-11.5,6.6-26.2,2.7-32.8-8.8c-6.6-11.5-2.7-26.2,8.8-32.8C364.2,393.8,378.9,397.7,385.6,409.2"/>
	<path fill-rule="evenodd" clip-rule="evenodd" fill="#9E000F" d="M208.2,621.2c19,39.6,59.7,64.3,104.4,61.6
		c44.7-2.7,82.1-32.1,96.2-73.7c10.4-30.8,6.8-57.2-4.8-80.6c-19.9-40.4-63.1-72.1-98-102.3l-16.8,19.2
		c29.6,25.7,74.4,57.5,92.1,94.8c9.3,19.4,10.1,40.1,3.2,60.6c-10.8,31.8-39.3,54.4-73.6,56.4c-34.3,2.1-65.3-16.8-79.9-47.2
		c-4.7-9.7-7.6-20.5-8.3-32l-25.5,1.6C198.3,594.5,202.1,608.5,208.2,621.2"/>
	<linearGradient id="SVGID_1_" gradientUnits="userSpaceOnUse" x1="259.8311" y1="612.9672" x2="369.3963" y2="511.2281">
		<stop  offset="0.3447" style="stop-color:#EE7D80"/>
		<stop  offset="0.4076" style="stop-color:#ED6C71"/>
		<stop  offset="0.5977" style="stop-color:#E93E49"/>
		<stop  offset="0.7666" style="stop-color:#E61D2B"/>
		<stop  offset="0.9065" style="stop-color:#E50819"/>
		<stop  offset="1" style="stop-color:#E40113"/>
	</linearGradient>
	<path fill-rule="evenodd" clip-rule="evenodd" fill="url(#SVGID_1_)" d="M247.8,602.9c11.3,23.6,35.6,38.3,62.2,36.7
		c26.3-1.6,48.9-18.9,57.3-43.9c11.5-33.7-6.1-59.3-29-81.1c-4.7,5.6-10.4,12.3-16.5,19.4c15.5,14.4,28.6,31.9,21.3,53.5
		c-5.1,15.1-18.7,25.7-34.7,26.6c-16.2,1-30.8-8-37.7-22.3c-16-33.2,27.4-69.4,48.4-94.1c-6.5-5.4-12.8-10.6-18.7-15.7
		C270.6,515.1,224,553.5,247.8,602.9L247.8,602.9z"/>
	
		<linearGradient id="SVGID_00000111897156375488036520000000508894772974620070_" gradientUnits="userSpaceOnUse" x1="187.3093" y1="534.8666" x2="296.8747" y2="433.1273">
		<stop  offset="0.3047" style="stop-color:#EE7D80"/>
		<stop  offset="0.3715" style="stop-color:#ED6C71"/>
		<stop  offset="0.5731" style="stop-color:#E93E49"/>
		<stop  offset="0.7523" style="stop-color:#E61D2B"/>
		<stop  offset="0.9008" style="stop-color:#E50819"/>
		<stop  offset="1" style="stop-color:#E40113"/>
	</linearGradient>
	<path fill-rule="evenodd" clip-rule="evenodd" fill="url(#SVGID_00000111897156375488036520000000508894772974620070_)" d="
		M233.7,484.6c-6.6-11.4-2.7-25.9,8.7-32.5c11.4-6.6,25.9-2.7,32.5,8.7c6.6,11.4,2.7,25.9-8.7,32.5
		C254.8,499.8,240.3,495.9,233.7,484.6"/>
</g>
</svg>
